<svg id="Group_5" data-name="Group 5" xmlns="http://www.w3.org/2000/svg" xmlns:xlink="http://www.w3.org/1999/xlink" width="220.074" height="74.596" viewBox="0 0 220.074 74.596">
  <defs>
    <clipPath id="clip-path">
      <rect id="Rectangle_5" data-name="Rectangle 5" width="220.074" height="74.596" fill="none"/>
    </clipPath>
  </defs>
  <g id="Group_4" data-name="Group 4" transform="translate(0 0)" clip-path="url(#clip-path)">
    <path id="Path_43" data-name="Path 43" d="M140.835,81.046v.817H149.6V74.227a16.5,16.5,0,0,1-8.768,6.819" transform="translate(-53.31 -28.097)" fill="#84d2e5"/>
    <path id="Path_44" data-name="Path 44" d="M106.183,49.944a16.442,16.442,0,0,0,32.883,0h-2.58V33.336h-8.768V55.667a7.66,7.66,0,0,1-12.767-5.723V33.957l-8.768,3.585Z" transform="translate(-40.193 -12.619)" fill="#ff3e46"/>
    <path id="Path_45" data-name="Path 45" d="M66.623,33.339A16.517,16.517,0,1,0,83.142,49.856,16.535,16.535,0,0,0,66.623,33.339m0,24.226a7.709,7.709,0,1,1,7.709-7.709,7.718,7.718,0,0,1-7.709,7.709" transform="translate(-18.967 -12.62)" fill="#171628"/>
    <path id="Path_46" data-name="Path 46" d="M162.015,25.307h0V41.89a16.46,16.46,0,0,0,16.442,16.442V49.563a7.682,7.682,0,0,1-7.673-7.673V34.05h6.364V25.282h-6.364V12.058l-8.768,3.454h0Z" transform="translate(-61.327 -4.564)" fill="#171628"/>
    <path id="Path_47" data-name="Path 47" d="M205.719,20.712a16.436,16.436,0,0,0-5.094.815L200.586,0l-8.768,3.585V53.767h8.768l.039-22.134v-.208a7.664,7.664,0,0,1,12.767,5.727l-.039,16.614h8.768l.039-16.614a16.46,16.46,0,0,0-16.442-16.442" transform="translate(-72.609 0)" fill="#171628"/>
    <path id="Path_48" data-name="Path 48" d="M24.871,33.356l-6.66,20.211L9.522,33.356H0L10.547,57.94A16.365,16.365,0,0,0,14.839,63.8L7.164,87.091,17.8,82.9l16.4-49.548Z" transform="translate(0 -12.626)" fill="#171628"/>
    <path id="Path_49" data-name="Path 49" d="M162.844,17.615h0Z" transform="translate(-61.641 -6.667)" fill="#171628"/>
    <path id="Path_50" data-name="Path 50" d="M2.893,9.675a1.217,1.217,0,0,1-.283.919.866.866,0,0,1-.571.264,1.511,1.511,0,0,1-.641-.127.918.918,0,0,1-.4-.337L.86,10.185,0,11.478l.073.093a1.808,1.808,0,0,0,.42.357,3.023,3.023,0,0,0,.664.316,2.469,2.469,0,0,0,.808.136,3.182,3.182,0,0,0,1-.15,2.012,2.012,0,0,0,.789-.481,2.139,2.139,0,0,0,.5-.809,3.42,3.42,0,0,0,.165-1.116V.24H2.893Z" transform="translate(0 -0.091)" fill="#171628"/>
    <path id="Path_51" data-name="Path 51" d="M15.058,8.185a3.942,3.942,0,0,0-3.789,0A3.615,3.615,0,0,0,9.93,9.515a3.793,3.793,0,0,0-.493,1.937,3.813,3.813,0,0,0,.492,1.929,3.6,3.6,0,0,0,1.339,1.338,3.944,3.944,0,0,0,3.79,0,3.6,3.6,0,0,0,1.33-1.337,3.8,3.8,0,0,0,.493-1.929,3.784,3.784,0,0,0-.494-1.937,3.624,3.624,0,0,0-1.329-1.33m.285,3.266a2.438,2.438,0,0,1-.285,1.192,2.171,2.171,0,0,1-.781.815,2.251,2.251,0,0,1-2.239,0,2.155,2.155,0,0,1-.779-.814,2.421,2.421,0,0,1-.286-1.192,2.471,2.471,0,0,1,.287-1.2,2.084,2.084,0,0,1,.777-.812,2.3,2.3,0,0,1,2.242,0,2.1,2.1,0,0,1,.778.812,2.481,2.481,0,0,1,.286,1.2" transform="translate(-3.572 -2.915)" fill="#171628"/>
    <path id="Path_52" data-name="Path 52" d="M28.916,5.33a3.611,3.611,0,0,0-1.793-.454,2.743,2.743,0,0,0-2.184.994V.24H23.417V12.231H24.94v-.846a2.788,2.788,0,0,0,.591.534,2.819,2.819,0,0,0,1.593.461,3.611,3.611,0,0,0,1.793-.454,3.424,3.424,0,0,0,1.3-1.3,3.955,3.955,0,0,0,.485-2,3.947,3.947,0,0,0-.486-2A3.436,3.436,0,0,0,28.916,5.33m.242,3.3a2.493,2.493,0,0,1-.3,1.264,1.994,1.994,0,0,1-.789.776,2.069,2.069,0,0,1-2.826-.777,2.443,2.443,0,0,1-.306-1.262,2.443,2.443,0,0,1,.306-1.262,2.093,2.093,0,0,1,.777-.779,1.938,1.938,0,0,1,.953-.264,2.3,2.3,0,0,1,1.1.265,2,2,0,0,1,.789.776,2.5,2.5,0,0,1,.3,1.264" transform="translate(-8.864 -0.091)" fill="#171628"/>
    <path id="Path_53" data-name="Path 53" d="M40.446,11.138h0a9.856,9.856,0,0,0-1.108-.524q-.354-.147-.678-.309a1.889,1.889,0,0,1-.5-.344A.5.5,0,0,1,38,9.6a.394.394,0,0,1,.191-.37,1.044,1.044,0,0,1,.558-.14,1.687,1.687,0,0,1,.881.232,2.242,2.242,0,0,1,.662.6l.091.123L41.6,9.265l-.071-.133a2.422,2.422,0,0,0-.625-.738,3.211,3.211,0,0,0-3.128-.488,2.073,2.073,0,0,0-.908.649,1.742,1.742,0,0,0-.358,1.119,1.746,1.746,0,0,0,.341,1.094,2.553,2.553,0,0,0,.815.686,8.609,8.609,0,0,0,.927.436c.259.1.51.2.747.316a1.817,1.817,0,0,1,.544.383.69.69,0,0,1,.187.494.609.609,0,0,1-.23.508,1.109,1.109,0,0,1-.7.2,1.722,1.722,0,0,1-.7-.143,1.9,1.9,0,0,1-.571-.392,3.661,3.661,0,0,1-.459-.559l-.088-.132-1.2.744.063.132a3.185,3.185,0,0,0,2.9,1.767,2.6,2.6,0,0,0,1.823-.641,2.111,2.111,0,0,0,.7-1.616,1.785,1.785,0,0,0-.324-1.1,2.64,2.64,0,0,0-.835-.71" transform="translate(-13.672 -2.915)" fill="#171628"/>
    <path id="Path_54" data-name="Path 54" d="M57.208,2.705a2.706,2.706,0,0,1,.082-.746.7.7,0,0,1,.194-.346.64.64,0,0,1,.608-.032.516.516,0,0,1,.262.249l.132.225.863-1.3L59.286.669a1.377,1.377,0,0,0-.33-.324A1.884,1.884,0,0,0,58.474.1a1.924,1.924,0,0,0-.636-.1,2.225,2.225,0,0,0-1.153.285,1.873,1.873,0,0,0-.745.857,3.41,3.41,0,0,0-.254,1.414V4.935h-.673V6.383h.673V12.14h1.523V6.383h1.57V4.935h-1.57Z" transform="translate(-20.824 0)" fill="#171628"/>
    <path id="Path_55" data-name="Path 55" d="M67.4,8.185a3.942,3.942,0,0,0-3.789,0,3.615,3.615,0,0,0-1.339,1.331,3.793,3.793,0,0,0-.493,1.937,3.813,3.813,0,0,0,.492,1.929,3.6,3.6,0,0,0,1.339,1.338,3.944,3.944,0,0,0,3.79,0,3.6,3.6,0,0,0,1.33-1.337,3.8,3.8,0,0,0,.493-1.929,3.784,3.784,0,0,0-.494-1.937A3.624,3.624,0,0,0,67.4,8.185m.285,3.266a2.438,2.438,0,0,1-.285,1.192,2.171,2.171,0,0,1-.781.815,2.251,2.251,0,0,1-2.239,0,2.155,2.155,0,0,1-.779-.814,2.421,2.421,0,0,1-.286-1.192,2.471,2.471,0,0,1,.287-1.2,2.084,2.084,0,0,1,.777-.812,2.3,2.3,0,0,1,2.242,0,2.1,2.1,0,0,1,.778.812,2.481,2.481,0,0,1,.286,1.2" transform="translate(-23.383 -2.915)" fill="#171628"/>
    <path id="Path_56" data-name="Path 56" d="M79.426,7.8a2.569,2.569,0,0,0-.741-.1,1.665,1.665,0,0,0-1.046.41,2.113,2.113,0,0,0-.242.232V7.85H75.873v7.205H77.4V10.7a3.494,3.494,0,0,1,.093-.844,1.013,1.013,0,0,1,.3-.529.878.878,0,0,1,.6-.183,1.135,1.135,0,0,1,.43.07,2.031,2.031,0,0,1,.4.242l.138.1.825-1.239-.089-.094a1.525,1.525,0,0,0-.662-.425" transform="translate(-28.72 -2.915)" fill="#171628"/>
    <path id="Path_57" data-name="Path 57" d="M98.239,7.94l-1.782,4.467L94.645,7.94H92.863l2.705,6.071-1.956,4.425h1.7l4.631-10.5Z" transform="translate(-35.151 -3.006)" fill="#171628"/>
    <path id="Path_58" data-name="Path 58" d="M110.282,8.185a3.942,3.942,0,0,0-3.789,0,3.615,3.615,0,0,0-1.339,1.331,3.793,3.793,0,0,0-.493,1.937,3.813,3.813,0,0,0,.492,1.929,3.6,3.6,0,0,0,1.339,1.338,3.944,3.944,0,0,0,3.79,0,3.6,3.6,0,0,0,1.33-1.337,3.8,3.8,0,0,0,.493-1.929,3.784,3.784,0,0,0-.494-1.937,3.624,3.624,0,0,0-1.329-1.33m.285,3.266a2.438,2.438,0,0,1-.285,1.192,2.171,2.171,0,0,1-.781.815,2.251,2.251,0,0,1-2.239,0,2.155,2.155,0,0,1-.779-.814,2.421,2.421,0,0,1-.286-1.192,2.471,2.471,0,0,1,.287-1.2,2.084,2.084,0,0,1,.777-.812,2.3,2.3,0,0,1,2.242,0,2.1,2.1,0,0,1,.778.812,2.481,2.481,0,0,1,.286,1.2" transform="translate(-39.617 -2.915)" fill="#171628"/>
    <path id="Path_59" data-name="Path 59" d="M123.171,12.29a1.633,1.633,0,0,1-.2.818,1.362,1.362,0,0,1-.548.542,1.735,1.735,0,0,1-.842.2,1.174,1.174,0,0,1-.966-.39,1.784,1.784,0,0,1-.336-1.167V7.94h-1.523v4.5a3.039,3.039,0,0,0,.684,2.066,2.342,2.342,0,0,0,1.843.788,2.446,2.446,0,0,0,1.281-.33,2.374,2.374,0,0,0,.6-.529v.71h1.523V7.94h-1.523Z" transform="translate(-44.954 -3.006)" fill="#171628"/>
    <path id="Path_60" data-name="Path 60" d="M132.939,4.09h-1.521V6.483h-1.123V7.931h1.123v5.757h1.521V7.931h1.122V6.483h-1.122Z" transform="translate(-49.32 -1.548)" fill="#171628"/>
    <path id="Path_61" data-name="Path 61" d="M143.967,6.164h0a2.176,2.176,0,0,0-.889-.967,2.677,2.677,0,0,0-1.329-.32,2.352,2.352,0,0,0-1.356.4,2.477,2.477,0,0,0-.53.493V.24H138.34V12.231h1.523V7.88a1.641,1.641,0,0,1,.2-.8,1.413,1.413,0,0,1,.552-.551,1.68,1.68,0,0,1,.838-.2,1.2,1.2,0,0,1,.976.376,1.807,1.807,0,0,1,.327,1.181v4.35h1.523v-4.5a3.586,3.586,0,0,0-.307-1.567" transform="translate(-52.366 -0.091)" fill="#171628"/>
    <path id="Path_62" data-name="Path 62" d="M288.822,64.609a16.517,16.517,0,1,0,0-29.163V33.522h-8.768v37.59H245.725v4.4h34.328V87.28h8.768V75.516h24.267v-4.4H288.822Zm7.749-22.29a7.709,7.709,0,1,1-7.709,7.709,7.718,7.718,0,0,1,7.709-7.709" transform="translate(-93.014 -12.685)" fill="#171628"/>
    <path id="Path_63" data-name="Path 63" d="M250.781,66.568l10.352-10.352,10.3,10.3,6.229-6.229-10.3-10.3,10.355-10.355L271.488,33.4,261.134,43.758,250.812,33.438l-6.228,6.229L254.9,49.987,244.552,60.339Z" transform="translate(-92.57 -12.644)" fill="#171628"/>
  </g>
</svg>
