<svg xmlns="http://www.w3.org/2000/svg" width="190.597" height="27.68" viewBox="0 0 190.597 27.68">
  <g id="Group_5537" data-name="Group 5537" transform="translate(-1367.998 -5663.32)">
    <g id="Group_5505" data-name="Group 5505" transform="translate(17.994 5.411)">
      <rect id="Rectangle_1551" data-name="Rectangle 1551" width="41.515" height="13.838" transform="translate(1350.004 5657.909)"/>
      <rect id="Rectangle_1552" data-name="Rectangle 1552" width="41.515" height="13.838" transform="translate(1350.004 5671.748)" fill="#fe2500"/>
      <path id="Path_11166" data-name="Path 11166" d="M31.71,12.4a6.919,6.919,0,1,1-6.919,6.919A6.92,6.92,0,0,1,31.71,12.4" transform="translate(1339.051 5652.432)" fill="#fdfb01"/>
    </g>
    <g id="Group_5502" data-name="Group 5502" transform="translate(11.994 5.411)">
      <rect id="Rectangle_1553" data-name="Rectangle 1553" width="41.515" height="27.677" transform="translate(1404.879 5657.909)" fill="#018700"/>
      <rect id="Rectangle_1554" data-name="Rectangle 1554" width="41.515" height="15.815" transform="translate(1404.879 5663.839)" fill="#000100"/>
      <rect id="Rectangle_1555" data-name="Rectangle 1555" width="41.515" height="13.838" transform="translate(1404.879 5664.829)" fill="#0433ff"/>
      <path id="Path_11167" data-name="Path 11167" d="M124.143,25.79l2.185-2.174a8.21,8.21,0,0,1-1.529-4.547,4.665,4.665,0,0,1,4.807-4.547L130.7,16.1l1.092-1.581c2.185,0,4.807,1.581,4.807,4.349a8.439,8.439,0,0,1-1.53,4.745l2.4,2.372L132.883,25V18.673c0-.4-.874-1.186-2.185-1.186-1.092,0-1.967.79-1.967,1.186V24.8Z" transform="translate(1295.157 5651.493)" fill="#fff" fill-rule="evenodd"/>
      <path id="Path_11168" data-name="Path 11168" d="M133.886,24.578l.314-.908-.832-.582,1.052-.011.354-.9.336.9,1.051.028-.843.568.3.913-.857-.551Z" transform="translate(1291.082 5648.109)" fill="#fff" fill-rule="evenodd"/>
    </g>
    <g id="Group_5504" data-name="Group 5504" transform="translate(0 5.411)">
      <rect id="Rectangle_1556" data-name="Rectangle 1556" width="36.614" height="27.68" transform="translate(1521.981 5657.909)" fill="#750787"/>
      <rect id="Rectangle_1557" data-name="Rectangle 1557" width="36.614" height="23.067" transform="translate(1521.981 5657.909)" fill="#004dff"/>
      <rect id="Rectangle_1558" data-name="Rectangle 1558" width="36.614" height="18.453" transform="translate(1521.981 5657.909)" fill="#008026"/>
      <rect id="Rectangle_1559" data-name="Rectangle 1559" width="41.768" height="13.84" transform="translate(1516.827 5657.909)" fill="#ffed00"/>
      <rect id="Rectangle_1560" data-name="Rectangle 1560" width="38.321" height="9.227" transform="translate(1520.274 5657.909)" fill="#ff8c00"/>
      <rect id="Rectangle_1561" data-name="Rectangle 1561" width="41.768" height="4.613" transform="translate(1516.827 5657.909)" fill="#e40303"/>
      <path id="Path_11169" data-name="Path 11169" d="M298.847,12.495l6.909,6.866-6.909,6.865Z" transform="translate(1217.972 5652.389)" fill="#fff"/>
      <path id="Path_11170" data-name="Path 11170" d="M298.847,9.735V6.248L309.171,16.6,298.847,26.953V23.466l6.909-6.865Z" transform="translate(1217.972 5655.148)" fill="#ffafc8"/>
      <path id="Path_11171" data-name="Path 11171" d="M298.847,3.487V0l13.9,13.84-13.9,13.84V24.193L309.171,13.84Z" transform="translate(1217.972 5657.909)" fill="#74d7ee"/>
      <path id="Path_11172" data-name="Path 11172" d="M298.847,0l13.9,13.84-13.9,13.84h3.494l13.833-13.84L302.341,0Z" transform="translate(1217.972 5657.909)" fill="#613915"/>
      <path id="Path_11173" data-name="Path 11173" d="M305.107,0h3.487l13.833,13.84L308.594,27.68h-3.487L318.94,13.84Z" transform="translate(1215.207 5657.909)"/>
    </g>
    <g id="Group_5503" data-name="Group 5503" transform="translate(6 5.411)">
      <rect id="Rectangle_1562" data-name="Rectangle 1562" width="43.71" height="27.677" transform="translate(1459.749 5657.909)" fill="#014992"/>
      <path id="Path_11174" data-name="Path 11174" d="M241.241,22.377" transform="translate(1243.423 5648.022)" fill="#282964"/>
      <path id="Path_11175" data-name="Path 11175" d="M241.241,22.377Z" transform="translate(1243.423 5648.022)" fill="#282964"/>
      <path id="Path_11176" data-name="Path 11176" d="M241.241,22.377Z" transform="translate(1243.423 5648.022)" fill="#282964"/>
      <path id="Path_11177" data-name="Path 11177" d="M241.242.06" transform="translate(1243.422 5657.882)" fill="#282964"/>
      <path id="Path_11178" data-name="Path 11178" d="M241.241,17.356v0Z" transform="translate(1243.423 5651.412)" fill="#282964"/>
      <path id="Path_11179" data-name="Path 11179" d="M241.242,22.377Z" transform="translate(1243.422 5648.022)" fill="#282964"/>
      <path id="Path_11180" data-name="Path 11180" d="M229.017,14.706l6.823,3.412v-.761l-5.3-2.65Z" transform="translate(1248.823 5651.412)" fill="#fff"/>
      <path id="Path_11181" data-name="Path 11181" d="M224.358,14.706h-1.946v.659l7.247,3.624h3.264Z" transform="translate(1251.742 5651.412)" fill="#fff"/>
      <path id="Path_11182" data-name="Path 11182" d="M222.411,4.342h.205L231.181.06h-1.523l-7.247,3.624Z" transform="translate(1251.742 5657.883)" fill="#fff"/>
      <path id="Path_11183" data-name="Path 11183" d="M205.172,4.342h1.946V3.683L199.871.06h-3.264Z" transform="translate(1263.142 5657.883)" fill="#fff"/>
      <path id="Path_11184" data-name="Path 11184" d="M225.9,14.706l8.564,4.282Z" transform="translate(1250.201 5651.412)" fill="#fff"/>
      <path id="Path_11185" data-name="Path 11185" d="M229.163,4.342l5.3-2.65V.06L225.9,4.342Z" transform="translate(1250.201 5657.883)" fill="#fff"/>
      <path id="Path_11186" data-name="Path 11186" d="M196.607,22.377" transform="translate(1263.142 5648.022)" fill="#fff"/>
      <path id="Path_11187" data-name="Path 11187" d="M205.172,14.706h0l-8.564,4.282Z" transform="translate(1263.142 5651.412)" fill="#fff"/>
      <path id="Path_11188" data-name="Path 11188" d="M205.172,14.706h-3.264l-5.3,2.65v1.632Z" transform="translate(1263.142 5651.412)" fill="#fff"/>
      <path id="Path_11189" data-name="Path 11189" d="M196.607.06" transform="translate(1263.142 5657.882)" fill="#fff"/>
      <path id="Path_11190" data-name="Path 11190" d="M203.43,5.031,196.607,1.62v.761l5.3,2.65Z" transform="translate(1263.142 5657.193)" fill="#fff"/>
      <path id="Path_11191" data-name="Path 11191" d="M196.607.06" transform="translate(1263.142 5657.882)" fill="#fff"/>
      <path id="Path_11192" data-name="Path 11192" d="M208.5,14.706h-.205l-8.564,4.282h1.523l7.247-3.624Z" transform="translate(1261.764 5651.412)" fill="#fff"/>
      <path id="Path_11193" data-name="Path 11193" d="M241.241,21.688h0v0Z" transform="translate(1243.423 5648.711)" fill="red"/>
      <path id="Path_11194" data-name="Path 11194" d="M241.241.06" transform="translate(1243.423 5657.882)" fill="red"/>
      <path id="Path_11195" data-name="Path 11195" d="M241.241.06" transform="translate(1243.423 5657.882)" fill="red"/>
      <path id="Path_11196" data-name="Path 11196" d="M241.241.06Z" transform="translate(1243.423 5657.882)" fill="red"/>
      <path id="Path_11197" data-name="Path 11197" d="M234.463.06h0L225.9,4.342Z" transform="translate(1250.201 5657.882)" fill="red"/>
      <path id="Path_11198" data-name="Path 11198" d="M205.172,4.342,196.607.06V.93l6.823,3.412Z" transform="translate(1263.142 5657.883)" fill="red"/>
      <path id="Path_11199" data-name="Path 11199" d="M205.172,14.706l-8.564,4.282h1.741l8.564-4.282Z" transform="translate(1263.142 5651.412)" fill="red"/>
      <path id="Path_11200" data-name="Path 11200" d="M224.52,4.342,233.085.06h-1.741l-8.564,4.282Z" transform="translate(1251.579 5657.883)" fill="red"/>
      <path id="Path_11201" data-name="Path 11201" d="M196.607.06h0l8.564,4.282Z" transform="translate(1263.143 5657.882)" fill="red"/>
      <path id="Path_11202" data-name="Path 11202" d="M227.639,14.706H225.9l8.564,4.282v-.871Z" transform="translate(1250.201 5651.412)" fill="red"/>
      <path id="Path_11203" data-name="Path 11203" d="M241.241,14.089h0v0Z" transform="translate(1243.423 5652.028)" fill="#fff"/>
      <path id="Path_11204" data-name="Path 11204" d="M201.907,7.732h-5.3V8.51h6.857Z" transform="translate(1263.142 5654.493)" fill="#fff"/>
      <path id="Path_11205" data-name="Path 11205" d="M216.216,4.072V.059h-.779V3.683Z" transform="translate(1254.823 5657.883)" fill="#fff"/>
      <path id="Path_11206" data-name="Path 11206" d="M203.464,13.311h-6.857v.779h5.3Z" transform="translate(1263.143 5652.028)" fill="#fff"/>
      <path id="Path_11207" data-name="Path 11207" d="M228.957,8.51h6.857V7.731h-5.3Z" transform="translate(1248.85 5654.493)" fill="#fff"/>
      <path id="Path_11208" data-name="Path 11208" d="M241.241,8.51h0v0Z" transform="translate(1243.423 5654.493)" fill="#fff"/>
      <path id="Path_11209" data-name="Path 11209" d="M221.795,3.683V.06h-.779V4.072Z" transform="translate(1252.358 5657.882)" fill="#fff"/>
      <path id="Path_11210" data-name="Path 11210" d="M221.016,15.189V19.2h.779V15.578Z" transform="translate(1252.358 5651.198)" fill="#fff"/>
      <path id="Path_11211" data-name="Path 11211" d="M230.514,14.089h5.3v-.779h-6.857Z" transform="translate(1248.85 5652.028)" fill="#fff"/>
      <path id="Path_11212" data-name="Path 11212" d="M216.216,15.189l-.779.389V19.2h.779Z" transform="translate(1254.823 5651.198)" fill="#fff"/>
      <path id="Path_11213" data-name="Path 11213" d="M226.373,8.51l1.557-.779h-3.264l-1.557.779Z" transform="translate(1251.434 5654.493)" fill="#fff"/>
      <path id="Path_11214" data-name="Path 11214" d="M214.675,7.989V6.94l-.779-.389V7.21H211.95l1.557.779Z" transform="translate(1256.364 5655.015)" fill="#fff"/>
      <path id="Path_11215" data-name="Path 11215" d="M222,7.21h-.205V6.552l-.779.389V7.7Z" transform="translate(1252.358 5655.015)" fill="#fff"/>
      <path id="Path_11216" data-name="Path 11216" d="M227.751,13.311h-1.523l1.557.779h1.523Z" transform="translate(1250.056 5652.028)" fill="#fff"/>
      <path id="Path_11217" data-name="Path 11217" d="M215.069,14.316h.205v.659l.779-.389v-.761Z" transform="translate(1254.985 5651.801)" fill="#fff"/>
      <path id="Path_11218" data-name="Path 11218" d="M223.109,13.311h0l1.557.779Z" transform="translate(1251.434 5652.028)" fill="#fff"/>
      <path id="Path_11219" data-name="Path 11219" d="M213.507,13.311l-1.557.779Z" transform="translate(1256.364 5652.028)" fill="#fff"/>
      <path id="Path_11220" data-name="Path 11220" d="M207.659,13.311l-1.557.779h3.264l1.557-.779Z" transform="translate(1258.947 5652.028)" fill="#fff"/>
      <path id="Path_11221" data-name="Path 11221" d="M221.016,13.311v1.048l.779.389v-.659h1.946l-1.557-.779Z" transform="translate(1252.358 5652.028)" fill="#fff"/>
      <path id="Path_11222" data-name="Path 11222" d="M207.625,7.732H206.1l1.557.779h1.523Z" transform="translate(1258.947 5654.493)" fill="#fff"/>
      <path id="Path_11223" data-name="Path 11223" d="M214.675,13.6v-.286h-1.168l-1.557.778h1.741Z" transform="translate(1256.364 5652.028)" fill="#fff"/>
      <path id="Path_11224" data-name="Path 11224" d="M213.507,8.51l-1.557-.779Z" transform="translate(1256.364 5654.493)" fill="#fff"/>
      <path id="Path_11225" data-name="Path 11225" d="M223.109,13.311l1.557.779h1.741l-1.557-.779Z" transform="translate(1251.434 5652.028)" fill="#fff"/>
      <path id="Path_11226" data-name="Path 11226" d="M212.129,8.51l-1.557-.779h-1.741l1.557.779Z" transform="translate(1257.742 5654.493)" fill="#fff"/>
      <path id="Path_11227" data-name="Path 11227" d="M221.016,8.51h1.168l1.557-.779H222l-.984.492Z" transform="translate(1252.358 5654.493)" fill="#fff"/>
      <path id="Path_11228" data-name="Path 11228" d="M223.109,8.51l1.557-.779Z" transform="translate(1251.434 5654.493)" fill="#fff"/>
      <path id="Path_11229" data-name="Path 11229" d="M233.965,12.387V11.219h-9.193l2.335,1.168Z" transform="translate(1250.699 5652.953)" fill="red"/>
      <path id="Path_11230" data-name="Path 11230" d="M218.924,18.739h1.168V14.726l-1.168-.584Z" transform="translate(1253.282 5651.661)" fill="red"/>
      <path id="Path_11231" data-name="Path 11231" d="M218,14.143l-1.168.584v4.013H218Z" transform="translate(1254.207 5651.661)" fill="red"/>
      <path id="Path_11232" data-name="Path 11232" d="M241.241,12.386h0v0Z" transform="translate(1243.423 5652.953)" fill="red"/>
      <path id="Path_11233" data-name="Path 11233" d="M205.8,11.219h-9.193v1.168h6.857Z" transform="translate(1263.142 5652.953)" fill="red"/>
      <path id="Path_11234" data-name="Path 11234" d="M203.464,9.126h-6.857v1.168H205.8Z" transform="translate(1263.143 5653.877)" fill="red"/>
      <path id="Path_11235" data-name="Path 11235" d="M224.772,10.294h9.193V9.127h-6.857Z" transform="translate(1250.699 5653.877)" fill="red"/>
      <path id="Path_11236" data-name="Path 11236" d="M220.092,4.072V.059h-1.168v4.6Z" transform="translate(1253.282 5657.883)" fill="red"/>
      <path id="Path_11237" data-name="Path 11237" d="M218,4.656V.06h-1.168V4.072Z" transform="translate(1254.207 5657.883)" fill="red"/>
      <path id="Path_11238" data-name="Path 11238" d="M241.241,9.127h0v0Z" transform="translate(1243.423 5653.877)" fill="red"/>
      <path id="Path_11239" data-name="Path 11239" d="M218.924,11.219l2.336,1.168Z" transform="translate(1253.283 5652.952)" fill="red"/>
      <path id="Path_11240" data-name="Path 11240" d="M217.075,11.219l-2.336,1.168h0Z" transform="translate(1255.131 5652.953)" fill="red"/>
      <path id="Path_11241" data-name="Path 11241" d="M224.379,12.387H225.9l-2.335-1.168h-1.523Z" transform="translate(1251.904 5652.953)" fill="red"/>
      <path id="Path_11242" data-name="Path 11242" d="M220.665,10.294h1.523l2.336-1.168H221.26l-2.336,1.168Z" transform="translate(1253.282 5653.877)" fill="red"/>
      <path id="Path_11243" data-name="Path 11243" d="M218,12.778l-1.168.584v.762L218,13.54Z" transform="translate(1254.207 5652.264)" fill="red"/>
      <path id="Path_11244" data-name="Path 11244" d="M215.908,8.3H214.74l2.335,1.168V7.832l-1.168-.584Z" transform="translate(1255.131 5654.707)" fill="red"/>
      <path id="Path_11245" data-name="Path 11245" d="M218.924,8.594l1.168-.584V7.248l-1.168.584Z" transform="translate(1253.282 5654.707)" fill="red"/>
      <path id="Path_11246" data-name="Path 11246" d="M210.415,9.126h-1.523l2.335,1.168h1.523Z" transform="translate(1257.715 5653.877)" fill="red"/>
      <path id="Path_11247" data-name="Path 11247" d="M220.092,12.387h1.168l-2.335-1.168v1.632l1.168.584Z" transform="translate(1253.282 5652.953)" fill="red"/>
      <path id="Path_11248" data-name="Path 11248" d="M212.156,12.387l2.336-1.168h-3.264l-2.336,1.168Z" transform="translate(1257.715 5652.953)" fill="red"/>
      <path id="Path_11249" data-name="Path 11249" d="M220.665,11.219h-1.741l2.336,1.168H223Z" transform="translate(1253.282 5652.953)" fill="red"/>
      <path id="Path_11250" data-name="Path 11250" d="M221.26,8.9h-1.168V8.613l-1.168.584h0v.87Z" transform="translate(1253.283 5654.104)" fill="red"/>
      <path id="Path_11251" data-name="Path 11251" d="M218.924,10.295l2.335-1.168Z" transform="translate(1253.283 5653.876)" fill="red"/>
      <path id="Path_11252" data-name="Path 11252" d="M211.621,9.126l2.335,1.168H215.7l-2.335-1.168Z" transform="translate(1256.509 5653.877)" fill="red"/>
      <path id="Path_11253" data-name="Path 11253" d="M214.74,9.126h0l2.335,1.168Z" transform="translate(1255.131 5653.877)" fill="red"/>
      <path id="Path_11254" data-name="Path 11254" d="M218.924,11.219" transform="translate(1253.283 5652.952)" fill="red"/>
      <path id="Path_11255" data-name="Path 11255" d="M218.924,11.219" transform="translate(1253.283 5652.952)" fill="red"/>
      <path id="Path_11256" data-name="Path 11256" d="M218.924,11.219Z" transform="translate(1253.283 5652.952)" fill="red"/>
      <path id="Path_11257" data-name="Path 11257" d="M217.076,11.219l-2.335,1.168h1.168v.287l1.168-.584Z" transform="translate(1255.131 5652.953)" fill="red"/>
      <path id="Path_11258" data-name="Path 11258" d="M218.924,11.219Z" transform="translate(1253.283 5652.952)" fill="red"/>
      <path id="Path_11259" data-name="Path 11259" d="M216.341,30.953l.646,2.007,1.972-.747-1.167,1.757,1.814,1.076-2.1.183.29,2.089-1.453-1.529-1.453,1.529.29-2.089-2.1-.183,1.814-1.076-1.167-1.757,1.972.747Z" transform="translate(1255.866 5644.234)" fill="#fff"/>
      <path id="Path_11260" data-name="Path 11260" d="M257.083,32.671l.342,1.064,1.046-.4-.619.932.962.57-1.114.1.154,1.107-.77-.811-.77.811.154-1.107-1.114-.1.962-.57-.619-.932,1.046.4Z" transform="translate(1237.188 5643.475)" fill="#fff"/>
      <path id="Path_11261" data-name="Path 11261" d="M248.32,18l.342,1.064,1.046-.4-.619.932.962.57-1.114.1.154,1.107-.77-.811-.77.811.153-1.107-1.114-.1.962-.57-.619-.932,1.046.4Z" transform="translate(1241.06 5649.958)" fill="#fff"/>
      <path id="Path_11262" data-name="Path 11262" d="M257.083,7.038l.342,1.064,1.046-.4-.619.932.962.57-1.114.1.154,1.107-.77-.811-.77.811.154-1.107-1.114-.1.962-.57-.619-.932,1.046.4Z" transform="translate(1237.188 5654.8)" fill="#fff"/>
      <path id="Path_11263" data-name="Path 11263" d="M265.24,14.473l.342,1.064,1.046-.4-.619.932.962.57-1.114.1.154,1.107-.77-.811-.77.811.154-1.107-1.114-.1.962-.57-.619-.932,1.046.4Z" transform="translate(1233.584 5651.515)" fill="#fff"/>
      <path id="Path_11264" data-name="Path 11264" d="M261.755,22.365l.271.663.714.052-.547.462.171.7-.608-.377-.609.377.171-.7-.548-.462.714-.052Z" transform="translate(1234.795 5648.028)" fill="#fff"/>
    </g>
  </g>
</svg>
