<svg id="Group_4555" data-name="Group 4555" xmlns="http://www.w3.org/2000/svg" xmlns:xlink="http://www.w3.org/1999/xlink" width="29" height="27.807" viewBox="0 0 29 27.807">
  <defs>
    <clipPath id="clip-path">
      <rect id="Rectangle_1215" data-name="Rectangle 1215" width="29" height="27.807" fill="none" stroke="#8da5c7" stroke-width="1.5"/>
    </clipPath>
  </defs>
  <g id="Group_4536" data-name="Group 4536" transform="translate(0 0)" clip-path="url(#clip-path)">
    <g id="Path_10424" data-name="Path 10424" transform="translate(0.334 0.334)" fill="none" stroke-miterlimit="10">
      <path d="M20.57.5a7.369,7.369,0,0,0-6.4,3.653A7.369,7.369,0,0,0,7.761.5C3.24.5.5,4.3.5,9.238c0,8.624,13.666,17.248,13.666,17.248S27.831,17.862,27.831,9.238C27.831,4.3,25.091.5,20.57.5Z" stroke="none"/>
      <path d="M 7.760841369628906 1.999994277954102 C 6.063192367553711 1.999994277954102 4.627132415771484 2.675544738769531 3.607902526855469 3.953624725341797 C 2.57103157043457 5.253824234008789 2.000001907348633 7.130414962768555 2.000001907348633 9.237714767456055 C 2.000001907348633 13.14747428894043 5.441831588745117 17.23400497436523 8.329172134399414 19.97370529174805 C 10.63842964172363 22.16487884521484 12.97787380218506 23.86498641967773 14.16603469848633 24.68294906616211 C 15.34642505645752 23.87090492248535 17.66300964355469 22.18796157836914 19.96722221374512 20.0067138671875 C 22.87045288085938 17.25841522216797 26.33122253417969 13.15917491912842 26.33122253417969 9.237714767456055 C 26.33122253417969 7.130414962768555 25.76019287109375 5.253824234008789 24.72332191467285 3.953624725341797 C 23.70409202575684 2.675544738769531 22.26802253723145 1.999994277954102 20.57037162780762 1.999994277954102 C 17.11259078979492 1.999994277954102 15.59940624237061 4.65654182434082 15.49694728851318 4.844211578369141 L 14.17627239227295 7.549884796142578 L 12.83459568023682 4.844795227050781 C 12.73500061035156 4.662136077880859 11.22227478027344 1.999994277954102 7.760841369628906 1.999994277954102 M 7.760841369628906 0.4999942779541016 C 12.28156280517578 0.4999942779541016 14.16561222076416 4.1529541015625 14.16561222076416 4.1529541015625 C 14.16561222076416 4.1529541015625 16.04966354370117 0.4999942779541016 20.57037162780762 0.4999942779541016 C 25.09109115600586 0.4999942779541016 27.83122253417969 4.303144454956055 27.83122253417969 9.237714767456055 C 27.83122253417969 17.86195373535156 14.16561222076416 26.48618507385254 14.16561222076416 26.48618507385254 C 14.16561222076416 26.48618507385254 0.5000019073486328 17.86195373535156 0.5000019073486328 9.237714767456055 C 0.5000019073486328 4.303144454956055 3.240131378173828 0.4999942779541016 7.760841369628906 0.4999942779541016 Z" stroke="none" fill="#8da5c7"/>
    </g>
  </g>
</svg>
