<svg id="Group_4555" data-name="Group 4555" xmlns="http://www.w3.org/2000/svg" xmlns:xlink="http://www.w3.org/1999/xlink" width="29" height="27.807" viewBox="0 0 29 27.807">
  <defs>
    <clipPath id="clip-path">
      <rect id="Rectangle_1215" data-name="Rectangle 1215" width="29" height="27.807" fill="#ff685d" stroke="#ff685d" stroke-width="1.5"/>
    </clipPath>
  </defs>
  <g id="Group_4536" data-name="Group 4536" transform="translate(0 0)" clip-path="url(#clip-path)">
    <g id="Path_10424" data-name="Path 10424" transform="translate(0.334 0.334)" fill="#ff685d" stroke-miterlimit="10">
      <path d="M 14.16561222076416 25.58920288085938 C 13.17246246337891 24.92464256286621 10.48492050170898 23.05013465881348 7.830752372741699 20.53465461730957 C 5.896642208099365 18.70162391662598 4.359582424163818 16.89312362670898 3.262242317199707 15.15939426422119 C 1.927022218704224 13.04981422424316 1.250002264976501 11.05747413635254 1.250002264976501 9.237714767456055 C 1.250002264976501 6.961184501647949 1.879142165184021 4.918524265289307 3.021532297134399 3.486014366149902 C 4.188082218170166 2.023204326629639 5.826902389526367 1.250004410743713 7.760842323303223 1.250004410743713 C 11.77803230285645 1.250004410743713 13.48230266571045 4.464274406433105 13.49904251098633 4.496744632720947 L 14.16561222076416 5.789134502410889 L 14.83218193054199 4.496744632720947 C 14.83523178100586 4.490954399108887 15.2768726348877 3.661644458770752 16.2121524810791 2.851094484329224 C 17.43804168701172 1.788694500923157 18.90435218811035 1.250004410743713 20.57037162780762 1.250004410743713 C 22.50431251525879 1.250004410743713 24.14314270019531 2.023204326629639 25.3096923828125 3.486014366149902 C 26.45208168029785 4.918524265289307 27.08122253417969 6.961184501647949 27.08122253417969 9.237714767456055 C 27.08122253417969 11.05747413635254 26.40420150756836 13.04981422424316 25.06898307800293 15.15939426422119 C 23.97164154052734 16.89312362670898 22.4345817565918 18.70162391662598 20.50047302246094 20.53465461730957 C 17.84630393981934 23.05013465881348 15.15876197814941 24.92464256286621 14.16561222076416 25.58920288085938 Z" stroke="none"/>
      <path d="M 7.760841369628906 1.999994277954102 C 6.063192367553711 1.999994277954102 4.627132415771484 2.675544738769531 3.607902526855469 3.953624725341797 C 2.57103157043457 5.253824234008789 2.000001907348633 7.130414962768555 2.000001907348633 9.237714767456055 C 2.000001907348633 13.14747428894043 5.441831588745117 17.23400497436523 8.329172134399414 19.97370529174805 C 10.63842964172363 22.16487884521484 12.97787380218506 23.86498641967773 14.16603469848633 24.68294906616211 C 15.34642505645752 23.87090492248535 17.66300964355469 22.18796157836914 19.96722221374512 20.0067138671875 C 22.87045288085938 17.25841522216797 26.33122253417969 13.15917491912842 26.33122253417969 9.237714767456055 C 26.33122253417969 7.130414962768555 25.76019287109375 5.253824234008789 24.72332191467285 3.953624725341797 C 23.70409202575684 2.675544738769531 22.26802253723145 1.999994277954102 20.57037162780762 1.999994277954102 C 17.11259078979492 1.999994277954102 15.59940624237061 4.65654182434082 15.49694728851318 4.844211578369141 L 14.17627239227295 7.549884796142578 L 12.83459568023682 4.844795227050781 C 12.73500061035156 4.662136077880859 11.22227478027344 1.999994277954102 7.760841369628906 1.999994277954102 M 7.760841369628906 0.4999942779541016 C 12.28156280517578 0.4999942779541016 14.16561222076416 4.1529541015625 14.16561222076416 4.1529541015625 C 14.16561222076416 4.1529541015625 16.04966354370117 0.4999942779541016 20.57037162780762 0.4999942779541016 C 25.09109115600586 0.4999942779541016 27.83122253417969 4.303144454956055 27.83122253417969 9.237714767456055 C 27.83122253417969 17.86195373535156 14.16561222076416 26.48618507385254 14.16561222076416 26.48618507385254 C 14.16561222076416 26.48618507385254 0.5000019073486328 17.86195373535156 0.5000019073486328 9.237714767456055 C 0.5000019073486328 4.303144454956055 3.240131378173828 0.4999942779541016 7.760841369628906 0.4999942779541016 Z" stroke="none" fill="#ff685d"/>
    </g>
  </g>
</svg>
