<svg id="Group_2" data-name="Group 2" xmlns="http://www.w3.org/2000/svg" xmlns:xlink="http://www.w3.org/1999/xlink" width="228.879" height="77.58" viewBox="0 0 228.879 77.58">
  <defs>
    <clipPath id="clip-path">
      <rect id="Rectangle_3" data-name="Rectangle 3" width="228.879" height="77.58" fill="none"/>
    </clipPath>
  </defs>
  <g id="Group_1" data-name="Group 1" transform="translate(0 0)" clip-path="url(#clip-path)">
    <path id="Path_22" data-name="Path 22" d="M140.835,81.319v.85h9.119V74.227a17.165,17.165,0,0,1-9.119,7.092" transform="translate(-49.809 -26.252)" fill="#96daea"/>
    <path id="Path_23" data-name="Path 23" d="M106.183,50.608a17.1,17.1,0,0,0,34.2,0H137.7V33.336H128.58V56.56A7.967,7.967,0,0,1,115.3,50.608V33.982l-9.119,3.728Z" transform="translate(-37.553 -11.79)" fill="#221c35"/>
    <path id="Path_24" data-name="Path 24" d="M67.284,33.339A17.178,17.178,0,1,0,84.463,50.517,17.2,17.2,0,0,0,67.284,33.339m0,25.2A8.017,8.017,0,1,1,75.3,50.517a8.026,8.026,0,0,1-8.018,8.017" transform="translate(-17.721 -11.791)" fill="#fff"/>
    <path id="Path_25" data-name="Path 25" d="M162.015,25.837h0V43.083a17.119,17.119,0,0,0,17.1,17.1V51.064a7.989,7.989,0,0,1-7.98-7.98V34.93h6.618V25.811h-6.618V12.058l-9.118,3.592h0Z" transform="translate(-57.299 -4.265)" fill="#fff"/>
    <path id="Path_26" data-name="Path 26" d="M206.275,21.54a17.094,17.094,0,0,0-5.3.848L200.937,0l-9.119,3.729v52.19h9.119l.041-23.019v-.216a7.971,7.971,0,0,1,13.278,5.957l-.041,17.278h9.119l.041-17.278a17.119,17.119,0,0,0-17.1-17.1" transform="translate(-67.839 0)" fill="#fff"/>
    <path id="Path_27" data-name="Path 27" d="M25.866,33.356,18.94,54.375,9.9,33.356H0L10.969,58.923a17.02,17.02,0,0,0,4.464,6.092L7.45,89.241l11.057-4.355,17.051-51.53Z" transform="translate(0 -11.797)" fill="#fff"/>
    <path id="Path_28" data-name="Path 28" d="M162.844,17.615h0Z" transform="translate(-57.592 -6.229)" fill="#fff"/>
    <path id="Path_29" data-name="Path 29" d="M3.009,10.053a1.266,1.266,0,0,1-.294.955.9.9,0,0,1-.594.275,1.572,1.572,0,0,1-.666-.132.955.955,0,0,1-.419-.35l-.14-.217L0,11.928l.076.1a1.881,1.881,0,0,0,.437.371,3.144,3.144,0,0,0,.69.329,2.568,2.568,0,0,0,.84.142,3.309,3.309,0,0,0,1.043-.156,2.093,2.093,0,0,0,.82-.5,2.225,2.225,0,0,0,.515-.842,3.557,3.557,0,0,0,.172-1.16V.24H3.009Z" transform="translate(0 -0.085)" fill="#fff"/>
    <path id="Path_30" data-name="Path 30" d="M15.283,8.2a4.1,4.1,0,0,0-3.941,0A3.76,3.76,0,0,0,9.95,9.588,3.944,3.944,0,0,0,9.437,11.6a3.966,3.966,0,0,0,.512,2.006A3.747,3.747,0,0,0,11.342,15a4.1,4.1,0,0,0,3.941,0,3.748,3.748,0,0,0,1.383-1.391,3.953,3.953,0,0,0,.513-2.006,3.935,3.935,0,0,0-.514-2.014A3.769,3.769,0,0,0,15.283,8.2m.3,3.4a2.535,2.535,0,0,1-.3,1.24,2.258,2.258,0,0,1-.812.847,2.341,2.341,0,0,1-2.328,0,2.241,2.241,0,0,1-.81-.847,2.518,2.518,0,0,1-.3-1.24,2.57,2.57,0,0,1,.3-1.249,2.168,2.168,0,0,1,.808-.845,2.393,2.393,0,0,1,2.331,0,2.185,2.185,0,0,1,.809.845,2.58,2.58,0,0,1,.3,1.249" transform="translate(-3.338 -2.723)" fill="#fff"/>
    <path id="Path_31" data-name="Path 31" d="M29.136,5.534a3.756,3.756,0,0,0-1.865-.472A2.853,2.853,0,0,0,25,6.1V.24H23.417V12.71H25v-.88a2.9,2.9,0,0,0,.615.556,2.932,2.932,0,0,0,1.657.479,3.756,3.756,0,0,0,1.865-.472,3.562,3.562,0,0,0,1.347-1.354,4.113,4.113,0,0,0,.5-2.075,4.105,4.105,0,0,0-.505-2.084,3.574,3.574,0,0,0-1.346-1.346m.252,3.429a2.593,2.593,0,0,1-.311,1.315,2.074,2.074,0,0,1-.82.807,2.151,2.151,0,0,1-2.939-.809A2.541,2.541,0,0,1,25,8.964a2.541,2.541,0,0,1,.318-1.313,2.177,2.177,0,0,1,.808-.81,2.015,2.015,0,0,1,.991-.274,2.39,2.39,0,0,1,1.14.275,2.078,2.078,0,0,1,.82.807,2.6,2.6,0,0,1,.311,1.315" transform="translate(-8.282 -0.085)" fill="#fff"/>
    <path id="Path_32" data-name="Path 32" d="M40.619,11.276h0a10.25,10.25,0,0,0-1.152-.545q-.368-.153-.705-.321a1.965,1.965,0,0,1-.516-.357.519.519,0,0,1-.169-.377.41.41,0,0,1,.2-.385,1.086,1.086,0,0,1,.58-.146,1.754,1.754,0,0,1,.917.241,2.331,2.331,0,0,1,.689.623l.094.128,1.26-.808-.074-.138a2.519,2.519,0,0,0-.65-.768,3.34,3.34,0,0,0-3.253-.508,2.156,2.156,0,0,0-.944.675,1.812,1.812,0,0,0-.372,1.163,1.816,1.816,0,0,0,.355,1.138,2.656,2.656,0,0,0,.847.714,8.954,8.954,0,0,0,.964.454c.27.1.531.21.777.328a1.89,1.89,0,0,1,.566.4.717.717,0,0,1,.195.514.634.634,0,0,1-.239.529,1.153,1.153,0,0,1-.727.2,1.791,1.791,0,0,1-.732-.149,1.977,1.977,0,0,1-.593-.408,3.807,3.807,0,0,1-.477-.581l-.091-.137-1.248.774.066.137A3.313,3.313,0,0,0,39.2,15.5a2.706,2.706,0,0,0,1.9-.666,2.2,2.2,0,0,0,.731-1.68,1.856,1.856,0,0,0-.337-1.144,2.746,2.746,0,0,0-.869-.738" transform="translate(-12.774 -2.724)" fill="#fff"/>
    <path id="Path_33" data-name="Path 33" d="M57.3,2.813a2.814,2.814,0,0,1,.085-.776.728.728,0,0,1,.2-.36.666.666,0,0,1,.633-.033.537.537,0,0,1,.272.259l.138.234.9-1.348L59.457.7a1.432,1.432,0,0,0-.343-.337,1.959,1.959,0,0,0-.5-.256A2,2,0,0,0,57.95,0a2.314,2.314,0,0,0-1.2.3,1.948,1.948,0,0,0-.775.891,3.547,3.547,0,0,0-.264,1.471V5.133h-.7V6.638h.7v5.988H57.3V6.638h1.633V5.133H57.3Z" transform="translate(-19.456 0)" fill="#fff"/>
    <path id="Path_34" data-name="Path 34" d="M67.62,8.2a4.1,4.1,0,0,0-3.941,0,3.76,3.76,0,0,0-1.393,1.384,3.944,3.944,0,0,0-.513,2.014,3.966,3.966,0,0,0,.512,2.006A3.747,3.747,0,0,0,63.679,15a4.1,4.1,0,0,0,3.941,0A3.748,3.748,0,0,0,69,13.608a3.953,3.953,0,0,0,.513-2.006A3.935,3.935,0,0,0,69,9.588,3.769,3.769,0,0,0,67.62,8.2m.3,3.4a2.535,2.535,0,0,1-.3,1.24,2.258,2.258,0,0,1-.812.847,2.341,2.341,0,0,1-2.328,0,2.241,2.241,0,0,1-.81-.847,2.518,2.518,0,0,1-.3-1.24,2.57,2.57,0,0,1,.3-1.249,2.168,2.168,0,0,1,.808-.845,2.393,2.393,0,0,1,2.331,0,2.185,2.185,0,0,1,.809.845,2.58,2.58,0,0,1,.3,1.249" transform="translate(-21.847 -2.723)" fill="#fff"/>
    <path id="Path_35" data-name="Path 35" d="M79.568,7.809A2.672,2.672,0,0,0,78.8,7.7a1.732,1.732,0,0,0-1.088.427,2.2,2.2,0,0,0-.252.242V7.856H75.873v7.494h1.584V10.825a3.634,3.634,0,0,1,.1-.878,1.054,1.054,0,0,1,.312-.551.913.913,0,0,1,.62-.191,1.181,1.181,0,0,1,.447.072,2.112,2.112,0,0,1,.416.251l.143.107.858-1.288-.093-.1a1.586,1.586,0,0,0-.689-.442" transform="translate(-26.834 -2.723)" fill="#fff"/>
    <path id="Path_36" data-name="Path 36" d="M98.454,7.94,96.6,12.586,94.716,7.94H92.863l2.813,6.313-2.035,4.6h1.77L100.228,7.94Z" transform="translate(-32.842 -2.808)" fill="#fff"/>
    <path id="Path_37" data-name="Path 37" d="M110.507,8.2a4.1,4.1,0,0,0-3.941,0,3.76,3.76,0,0,0-1.393,1.384,3.944,3.944,0,0,0-.513,2.014,3.966,3.966,0,0,0,.512,2.006A3.747,3.747,0,0,0,106.566,15a4.1,4.1,0,0,0,3.941,0,3.748,3.748,0,0,0,1.383-1.391A3.953,3.953,0,0,0,112.4,11.6a3.935,3.935,0,0,0-.514-2.014A3.769,3.769,0,0,0,110.507,8.2m.3,3.4a2.535,2.535,0,0,1-.3,1.24,2.257,2.257,0,0,1-.812.847,2.341,2.341,0,0,1-2.328,0,2.241,2.241,0,0,1-.81-.847,2.518,2.518,0,0,1-.3-1.24,2.57,2.57,0,0,1,.3-1.249,2.168,2.168,0,0,1,.808-.845,2.393,2.393,0,0,1,2.331,0,2.185,2.185,0,0,1,.809.845,2.58,2.58,0,0,1,.3,1.249" transform="translate(-37.015 -2.723)" fill="#fff"/>
    <path id="Path_38" data-name="Path 38" d="M123.347,12.464a1.7,1.7,0,0,1-.2.851,1.416,1.416,0,0,1-.57.564,1.8,1.8,0,0,1-.876.2,1.221,1.221,0,0,1-1-.406,1.855,1.855,0,0,1-.35-1.213V7.94h-1.584v4.68a3.16,3.16,0,0,0,.711,2.149,2.435,2.435,0,0,0,1.917.82,2.543,2.543,0,0,0,1.332-.343,2.469,2.469,0,0,0,.628-.551v.739h1.584V7.94h-1.584Z" transform="translate(-42.001 -2.808)" fill="#fff"/>
    <path id="Path_39" data-name="Path 39" d="M133.045,4.09h-1.582V6.578h-1.168V8.084h1.168v5.988h1.582V8.084h1.167V6.578h-1.167Z" transform="translate(-46.081 -1.447)" fill="#fff"/>
    <path id="Path_40" data-name="Path 40" d="M144.193,6.4h0a2.263,2.263,0,0,0-.925-1.006,2.784,2.784,0,0,0-1.383-.333,2.446,2.446,0,0,0-1.41.418,2.576,2.576,0,0,0-.551.513V.24H138.34V12.71h1.584V8.186a1.706,1.706,0,0,1,.2-.835,1.47,1.47,0,0,1,.575-.573,1.747,1.747,0,0,1,.872-.211,1.246,1.246,0,0,1,1.015.391,1.879,1.879,0,0,1,.34,1.228V12.71h1.584V8.03a3.729,3.729,0,0,0-.319-1.629" transform="translate(-48.926 -0.085)" fill="#fff"/>
    <path id="Path_41" data-name="Path 41" d="M290.546,65.853a17.178,17.178,0,1,0,0-30.33v-2h-9.119V72.616h-35.7V77.2h35.7V89.431h9.119V77.2h25.238v-4.58H290.546ZM298.6,42.671a8.017,8.017,0,1,1-8.017,8.017,8.027,8.027,0,0,1,8.017-8.017" transform="translate(-86.905 -11.851)" fill="#fff"/>
    <path id="Path_42" data-name="Path 42" d="M251.03,67.9,261.8,57.129l10.712,10.712,6.478-6.478L268.275,50.651l10.769-10.769L272.566,33.4,261.8,44.173,251.063,33.439l-6.478,6.478,10.734,10.734L244.552,61.417Z" transform="translate(-86.49 -11.814)" fill="#fff"/>
  </g>
</svg>
