<svg id="Group_3529" data-name="Group 3529" xmlns="http://www.w3.org/2000/svg" width="47.097" height="47.097" viewBox="0 0 47.097 47.097">
  <path id="Без_названия_1_" data-name="Без названия (1)" d="M159.4,151.548a7.852,7.852,0,1,0-2.3,5.55A7.563,7.563,0,0,0,159.4,151.548Zm4.231,0a12.039,12.039,0,1,1-3.526-8.555A11.649,11.649,0,0,1,163.629,151.548Zm3.311-12.571a2.827,2.827,0,1,1-.828-1.993A2.717,2.717,0,0,1,166.941,138.977Zm-15.392-6.746q-.215,0-2.346-.015t-3.235,0q-1.1.015-2.959.092a24.3,24.3,0,0,0-3.158.307,12.3,12.3,0,0,0-2.192.567,8.028,8.028,0,0,0-4.477,4.477,12.3,12.3,0,0,0-.567,2.192,24.31,24.31,0,0,0-.307,3.158q-.077,1.855-.092,2.959t0,3.235q.015,2.131.015,2.346t-.015,2.346q-.015,2.131,0,3.235t.092,2.959a24.313,24.313,0,0,0,.307,3.158,12.3,12.3,0,0,0,.567,2.192,8.028,8.028,0,0,0,4.477,4.477,12.294,12.294,0,0,0,2.192.567,24.293,24.293,0,0,0,3.158.307q1.855.077,2.959.092t3.235,0q2.131-.015,2.346-.015t2.346.015q2.131.015,3.235,0t2.959-.092a24.3,24.3,0,0,0,3.158-.307,12.3,12.3,0,0,0,2.192-.567,8.029,8.029,0,0,0,4.477-4.477,12.284,12.284,0,0,0,.567-2.192,24.3,24.3,0,0,0,.307-3.158q.077-1.855.092-2.959t0-3.235q-.015-2.131-.015-2.346t.015-2.346q.015-2.131,0-3.235t-.092-2.959a24.3,24.3,0,0,0-.307-3.158,12.285,12.285,0,0,0-.567-2.192,8.028,8.028,0,0,0-4.477-4.477,12.3,12.3,0,0,0-2.192-.567,24.305,24.305,0,0,0-3.158-.307q-1.855-.077-2.959-.092t-3.235,0Q151.763,132.231,151.549,132.231ZM175.1,151.548q0,7.022-.153,9.72-.306,6.378-3.8,9.873t-9.873,3.8q-2.7.153-9.72.153t-9.72-.153q-6.378-.307-9.873-3.8t-3.8-9.873q-.153-2.7-.153-9.72t.153-9.72q.307-6.378,3.8-9.873t9.873-3.8q2.7-.153,9.72-.153t9.72.153q6.378.307,9.873,3.8t3.8,9.873Q175.1,144.527,175.1,151.548Z" transform="translate(-128 -128)" fill="#fff"/>
</svg>
