<svg id="Group_3530" data-name="Group 3530" xmlns="http://www.w3.org/2000/svg" width="45.487" height="45.362" viewBox="0 0 45.487 45.362">
  <g id="Group_2" data-name="Group 2">
    <g id="Group_397" data-name="Group 397">
      <path id="Path_2099" data-name="Path 2099" d="M41.959,0H3.4A3.363,3.363,0,0,0,0,3.276V42.085a3.363,3.363,0,0,0,3.4,3.276H42.085a3.363,3.363,0,0,0,3.4-3.276V3.276A3.566,3.566,0,0,0,41.959,0ZM13.482,38.683h-6.8V17.011h6.678V38.683Zm-3.4-24.7A3.926,3.926,0,0,1,6.174,10.08,3.819,3.819,0,0,1,10.08,6.3a3.926,3.926,0,0,1,3.906,3.906A3.819,3.819,0,0,1,10.08,13.986Zm28.6,24.7H32.005V28.1c0-2.52,0-5.8-3.528-5.8s-4.032,2.772-4.032,5.544v10.71h-6.8V17.011h6.426v2.9h.126a7.052,7.052,0,0,1,6.426-3.528c6.8,0,8.064,4.536,8.064,10.332Z" fill="#fff"/>
    </g>
  </g>
</svg>
